<svg xmlns="http://www.w3.org/2000/svg" width="1963.168" height="1346.015" viewBox="0 0 1963.168 1346.015">
  <g id="Grupo_28" data-name="Grupo 28" transform="translate(1.486)">
    <g id="Rectángulo_2" data-name="Rectángulo 2" transform="translate(11.514 45.662)" fill="rgba(46,19,92,0.99)" stroke="#707070" stroke-width="1">
      <rect width="1937.168" height="1231.423" stroke="none"/>
      <rect x="0.5" y="0.5" width="1936.168" height="1230.423" fill="none"/>
    </g>
    <path id="Exclusión_3" data-name="Exclusión 3" d="M12.755,79.837V51.087H0q6.35,0,12.755-.187V47.511h46.49C163.18,35.914,273.929.088,362.571.088c140.105,0,267.405,40.783,384.553,41.6,80.1.561,157.8-10.137,230.327-20.835C1051.863,9.88,1120.827-1.1,1181.35.088c205.106,4.015,331.5,36.422,439.9,42.268,25.727,1.388,70.005-5.222,111.885-11.831,40.291-6.358,78.364-12.717,95.565-11.954,57.113,2.532,94.53,10.323,114.011,16.586,24.014,7.721,17.261,11.886,7.78,14V79.837Z" transform="translate(1961.681 1346.015) rotate(180)" fill="rgba(46,19,92,0.99)"/>
    <path id="Exclusión_4" data-name="Exclusión 4" d="M12.755,68.837V44.048H0q6.35,0,12.755-.161V40.965h46.49C163.18,30.966,273.929.076,362.571.076c140.105,0,267.405,35.164,384.553,35.872,80.1.484,157.8-8.74,230.327-17.965C1051.863,8.519,1120.827-.946,1181.35.076c205.106,3.462,331.5,31.4,439.9,36.445,25.726,1.2,70-4.5,111.885-10.2,40.292-5.482,78.364-10.964,95.565-10.307,57.113,2.183,94.53,8.9,114.011,14.3,24.014,6.657,17.261,10.248,7.78,12.069V68.837Z" transform="translate(-1.486)" fill="rgba(46,19,92,0.99)"/>
  </g>
</svg>
