<svg xmlns="http://www.w3.org/2000/svg" xmlns:xlink="http://www.w3.org/1999/xlink" width="169" height="86.312" viewBox="0 0 169 86.312">
  <defs>
    <filter id="Trazado_17" x="0.005" y="48.612" width="168.995" height="37.7" filterUnits="userSpaceOnUse">
      <feOffset dy="3" input="SourceAlpha"/>
      <feGaussianBlur stdDeviation="3" result="blur"/>
      <feFlood flood-opacity="0.161"/>
      <feComposite operator="in" in2="blur"/>
      <feComposite in="SourceGraphic"/>
    </filter>
    <filter id="Rect치ngulo_13" x="9.684" y="27.156" width="148" height="32" filterUnits="userSpaceOnUse">
      <feOffset dy="3" input="SourceAlpha"/>
      <feGaussianBlur stdDeviation="3" result="blur-2"/>
      <feFlood flood-opacity="0.161"/>
      <feComposite operator="in" in2="blur-2"/>
      <feComposite in="SourceGraphic"/>
    </filter>
    <filter id="Trazado_17-2" x="0" y="0" width="168.995" height="37.7" filterUnits="userSpaceOnUse">
      <feOffset dy="3" input="SourceAlpha"/>
      <feGaussianBlur stdDeviation="3" result="blur-3"/>
      <feFlood flood-opacity="0.161"/>
      <feComposite operator="in" in2="blur-3"/>
      <feComposite in="SourceGraphic"/>
    </filter>
  </defs>
  <g id="Grupo_38" data-name="Grupo 38" transform="translate(-923.313 300.156)">
    <g id="Grupo_36" data-name="Grupo 36" transform="translate(24 54.844)">
      <path id="Trazado_16" data-name="Trazado 16" d="M3.668-6.994C6.61-9.242,15.534-8.851,28.4-8.851s11.083.862,23.407.862,13.818-.862,25.887-.862,8.779.862,21.242.862,16.248-.862,28.611-.862,19.72.21,21.641,1.208c.551.286,2.141,1.05,1.752,1.754-.894,1.618-5.352,3.678-5.352,3.678L0-2.082A10.3,10.3,0,0,1,3.668-6.994Z" transform="translate(908.313 -289.983)" fill="#fff"/>
      <g transform="matrix(1, 0, 0, 1, 899.31, -355)" filter="url(#Trazado_17)">
        <path id="Trazado_17-3" data-name="Trazado 17" d="M3.7,5.46C6.663-1.058,15.66.076,28.629.076s11.173,2.5,23.6,2.5,13.93-2.5,26.1-2.5,8.85,2.5,21.414,2.5,16.379-2.5,28.842-2.5,19.88.61,21.816,3.5c.883,1.319.676,4.6.144,8.084-.534,3.5-1.512,7.16-1.512,7.16L0,19.7A51.264,51.264,0,0,1,3.7,5.46Z" transform="translate(160 74.31) rotate(180)" fill="#fff"/>
      </g>
    </g>
    <g transform="matrix(1, 0, 0, 1, 923.31, -300.16)" filter="url(#Rect치ngulo_13)">
      <rect id="Rect치ngulo_13-2" data-name="Rect치ngulo 13" width="130" height="14" rx="7" transform="translate(18.68 33.16)" fill="#fff"/>
    </g>
    <g id="Grupo_37" data-name="Grupo 37" transform="translate(1991.626 -574.844) rotate(180)">
      <path id="Trazado_16-2" data-name="Trazado 16" d="M3.668-6.994C6.61-9.242,15.534-8.851,28.4-8.851s11.083.862,23.407.862,13.818-.862,25.887-.862,8.779.862,21.242.862,16.248-.862,28.611-.862,19.72.21,21.641,1.208c.551.286,2.141,1.05,1.752,1.754-.894,1.618-5.352,3.678-5.352,3.678L0-2.082A10.3,10.3,0,0,1,3.668-6.994Z" transform="translate(908.313 -289.983)" fill="#fff"/>
      <g transform="matrix(-1, 0, 0, -1, 1068.31, -274.69)" filter="url(#Trazado_17-2)">
        <path id="Trazado_17-4" data-name="Trazado 17" d="M3.7,5.46C6.663-1.058,15.66.076,28.629.076s11.173,2.5,23.6,2.5,13.93-2.5,26.1-2.5,8.85,2.5,21.414,2.5,16.379-2.5,28.842-2.5,19.88.61,21.816,3.5c.883,1.319.676,4.6.144,8.084-.534,3.5-1.512,7.16-1.512,7.16L0,19.7A51.264,51.264,0,0,1,3.7,5.46Z" transform="translate(9 6)" fill="#fff"/>
      </g>
    </g>
  </g>
</svg>
